HIERARCHY
ROOT hip
{
	OFFSET 0.000000 0.000000 0.000000 
	CHANNELS 6 Xposition Yposition Zposition Xrotation Zrotation Yrotation
	JOINT abdomen
	{
		OFFSET 0.000000 3.402643 0.000000 
		CHANNELS 3 Xrotation Zrotation Yrotation
		JOINT chest
		{
			OFFSET 0.000000 8.438565 -0.680529 
			CHANNELS 3 Xrotation Zrotation Yrotation
			JOINT neck
			{
				OFFSET 0.000000 10.207942 -0.272212 
				CHANNELS 3 Xrotation Zrotation Yrotation
				JOINT head
				{
					OFFSET 0.000000 3.130431 0.000000 
					CHANNELS 3 Xrotation Zrotation Yrotation
					End Site
					{
						OFFSET 0.000000 3.130435 0.000000 
					}
				}
			}
			JOINT lCollar
			{
				OFFSET 3.470700 6.669187 -0.816635 
				CHANNELS 3 Yrotation Zrotation Xrotation
				JOINT lShldr
				{
					OFFSET 3.198488 0.000000 0.000000 
					CHANNELS 3 Zrotation Yrotation Xrotation
					JOINT lForeArm
					{
						OFFSET 10.139888 0.000000 0.000000 
						CHANNELS 3 Yrotation Zrotation Xrotation
						JOINT lHand
						{
							OFFSET 8.370511 0.000000 0.000000 
							CHANNELS 3 Zrotation Yrotation Xrotation
							End Site
							{
								OFFSET 4.083176 0.000000 0.000000 
							}
						}
					}
				}
			}
			JOINT rCollar
			{
				OFFSET -3.470700 6.669187 -0.816635 
				CHANNELS 3 Yrotation Zrotation Xrotation
				JOINT rShldr
				{
					OFFSET -3.198488 0.000000 0.000000 
					CHANNELS 3 Zrotation Yrotation Xrotation
					JOINT rForeArm
					{
						OFFSET -10.139888 0.000000 0.000000 
						CHANNELS 3 Yrotation Zrotation Xrotation
						JOINT rHand
						{
							OFFSET -8.370511 0.000000 0.000000 
							CHANNELS 3 Zrotation Yrotation Xrotation
							End Site
							{
								OFFSET -4.083176 0.000000 0.000000 
							}
						}
					}
				}
			}
		}
	}
	JOINT lThigh
	{
		OFFSET 5.308129 -1.633274 1.361059 
		CHANNELS 3 Xrotation Zrotation Yrotation
		JOINT lShin
		{
			OFFSET -2.041588 -20.007561 0.000000 
			CHANNELS 3 Xrotation Zrotation Yrotation
			JOINT lFoot
			{
				OFFSET 0.000000 -19.190928 -1.224953 
				CHANNELS 3 Xrotation Yrotation Zrotation
				End Site
				{
					OFFSET 0.000000 -2.449906 4.627600 
				}
			}
		}
	}
	JOINT rThigh
	{
		OFFSET -5.308129 -1.633274 1.361059 
		CHANNELS 3 Xrotation Zrotation Yrotation
		JOINT rShin
		{
			OFFSET 2.041588 -20.007561 0.000000 
			CHANNELS 3 Xrotation Zrotation Yrotation
			JOINT rFoot
			{
				OFFSET 0.000000 -19.190928 -1.224953 
				CHANNELS 3 Xrotation Yrotation Zrotation
				End Site
				{
					OFFSET 0.000000 -2.449906 4.627600 
				}
			}
		}
	}
}
MOTION
Frames: 13
Frame Time: 0.033333
-2.442078 52.104656 0.915521 -6.904297 5.214844 -95.751060 29.822811 -7.874106 -5.629282 -22.763672 4.531250 -0.448447 51.063168 8.107644 2.471410 -54.218754 15.898435 -47.216801 2.000000 -2.000000 0.000000 -98.916016 23.681643 -30.923811 -52.337334 -1.870324 -2.097646 16.793859 70.425148 11.444653 -2.000000 2.000000 0.000000 37.392578 -2.294922 -79.599609 93.077034 0.489831 -3.087907 30.214691 29.322876 -92.485474 0.701087 1.696444 -8.952490 10.012604 -5.329554 -1.325800 -5.732584 -5.131185 -2.704690 11.587515 -10.272942 -45.055580 11.770016 4.581067 0.953942 -9.217640 -10.822248 6.995442 
-2.259094 52.151924 0.952355 -6.894531 5.751953 -95.966797 29.822811 -7.874106 -5.629282 -22.929688 4.716797 -0.429687 51.063168 8.107644 2.471410 -54.423828 15.390622 -46.874996 2.000000 -2.000000 0.000000 -98.398438 22.861328 -29.839956 -52.500965 -1.561849 -2.008075 15.302967 69.810989 9.686691 -2.000000 2.000000 0.000000 37.207027 -2.451172 -79.765625 93.077034 0.489831 -3.087907 30.214691 29.322876 -92.485474 0.010079 1.717731 -8.938023 10.002650 -5.327957 -1.315122 -5.590794 -4.755123 -2.691808 11.193439 -9.920495 -44.783882 11.054945 4.579856 0.888182 -8.915941 -10.577185 7.015289 
-2.046163 52.207073 0.988054 -6.904297 6.259767 -96.386719 29.822811 -7.874106 -5.629282 -23.281250 4.716797 -0.467947 51.063168 8.107644 2.471410 -54.277340 14.863278 -46.628357 2.000000 -2.000000 0.000000 -98.066406 22.187500 -29.775391 -52.863911 -1.702316 -2.068332 14.052006 68.822342 8.413884 -2.000000 2.000000 0.000000 37.031250 -2.929688 -80.586441 93.076950 0.499782 -3.429647 30.277149 29.379642 -92.438988 -0.564860 1.738359 -8.224240 9.791194 -5.280788 -1.829508 -5.544456 -4.466361 -2.722818 10.504761 -9.726470 -45.023273 10.507242 4.608581 1.002537 -9.047313 -10.258389 6.983267 
-1.830581 52.262211 1.031875 -6.923828 6.787110 -96.795723 29.822811 -7.874106 -5.629282 -23.642578 4.912109 -0.478516 51.063168 8.107644 2.471410 -54.130859 14.316405 -46.132816 2.000000 -2.000000 0.000000 -97.929688 21.708984 -29.013670 -53.380711 -1.534307 -2.039018 12.826882 67.992706 6.995760 -2.000000 2.000000 0.000000 36.806641 -2.919922 -81.259766 93.077034 0.489831 -3.087907 30.214691 29.322876 -92.485474 -1.511694 1.677739 -8.561939 9.795135 -5.321931 -1.297364 -5.226138 -4.194955 -2.951420 9.760345 -9.608006 -44.247448 10.161915 4.601861 0.819330 -8.941931 -10.128103 7.063335 
-1.621989 52.293724 1.086495 -6.923828 7.324219 -97.215553 29.822811 -7.874106 -5.629282 -23.808594 5.087891 -0.467884 51.063168 8.107644 2.471410 -53.994144 13.789061 -45.898441 2.000000 -2.000000 0.000000 -97.617188 21.064451 -28.639069 -53.731194 -1.365730 -1.999959 11.525234 67.398643 5.698229 -2.000000 2.000000 0.000000 36.689453 -3.251953 -81.787666 93.257782 0.490221 -3.263889 30.214691 29.322876 -92.485474 -2.211626 1.686553 -8.548117 9.795135 -5.321933 -1.297364 -5.282441 -3.746435 -3.099278 9.199059 -9.688021 -44.017574 10.162458 4.625197 0.811229 -8.883454 -9.773806 7.126720 
-1.398735 52.325245 1.138520 -6.923828 7.832032 -97.801407 29.822811 -7.874106 -5.629282 -24.150391 5.263672 -0.488281 51.063168 8.107644 2.471410 -53.671879 13.232420 -45.449219 2.000000 -2.000000 0.000000 -97.451172 20.419922 -28.291016 -54.083050 -1.346801 -2.010843 10.562454 66.703110 4.368235 -2.000000 2.000000 0.000000 36.328125 -3.623047 -82.343750 93.253281 0.510656 -3.448578 30.296818 29.369280 -92.438110 -3.001465 1.901597 -8.355778 9.794918 -5.321831 -1.306194 -5.274319 -3.363536 -3.284256 8.302560 -9.685290 -43.927876 9.986930 4.621651 0.972538 -9.102253 -9.578315 6.793914 
-1.195488 52.364635 1.204782 -6.943359 8.349609 -98.212891 29.822811 -7.874106 -5.629282 -24.501955 5.449219 -0.498047 51.063168 8.107644 2.471410 -53.339844 12.685546 -45.007622 2.000000 -2.000000 0.000000 -97.197266 19.843750 -28.505859 -54.434624 -1.337052 -2.011411 9.730745 65.873390 3.641736 -2.000000 2.000000 0.000000 36.123043 -3.769531 -83.173828 93.253281 0.510656 -3.448578 30.296434 29.359524 -92.447876 -3.605925 1.911362 -7.819528 9.630258 -5.290884 -1.817055 -5.202895 -3.287037 -2.992936 7.341618 -9.677527 -43.498291 10.171022 4.630663 0.802644 -9.273925 -9.195910 6.793134 
-0.994616 52.364635 1.249459 -6.943359 8.896485 -98.642578 29.822811 -7.874106 -5.629282 -24.677734 5.458984 -0.517578 51.063168 8.107644 2.471410 -52.841801 12.119140 -44.531254 2.000000 -2.000000 0.000000 -97.519531 19.667969 -29.352180 -54.786461 -1.327871 -2.021726 9.506621 65.509644 3.252268 -2.000000 2.000000 0.000000 35.761719 -3.906250 -83.643242 93.253281 0.510656 -3.448578 30.296434 29.359524 -92.447876 -4.415491 1.882711 -8.340818 9.795130 -5.321943 -1.297364 -5.316980 -2.856383 -3.554849 6.447080 -9.683239 -43.242805 10.155705 4.616349 0.809832 -9.186010 -9.039523 7.132232 
-0.813960 52.380386 1.314446 -6.953125 9.414063 -98.867188 29.822811 -7.874106 -5.629282 -25.019533 5.644532 -0.537109 51.063168 8.107644 2.471410 -52.353519 11.552733 -44.013672 2.000000 -2.000000 0.000000 -97.822266 19.824219 -31.031841 -54.964169 -1.468906 -2.091726 10.025917 65.222000 3.371424 -2.000000 2.000000 0.000000 35.576176 -4.091797 -84.414757 93.253281 0.510656 -3.448578 30.296434 29.359524 -92.447876 -4.982087 1.902555 -7.630576 9.629577 -5.292638 -1.807434 -5.428768 -2.549353 -3.829424 5.809321 -9.735819 -43.181538 10.175135 4.598862 0.780904 -9.329602 -8.729114 7.120106 
-0.636985 52.380386 1.372468 -6.972656 9.765822 -99.256355 29.822811 -7.874106 -5.629282 -25.205080 5.820313 -0.546875 51.063168 8.107644 2.471410 -51.855473 10.986326 -43.544926 2.000000 -2.000000 0.000000 -98.417969 20.400389 -31.845703 -55.321251 -1.469555 -1.934980 10.490217 65.549492 3.884353 -2.000000 2.000000 0.000000 35.205078 -4.248047 -84.834709 93.077225 0.519843 -3.438271 30.296434 29.359524 -92.447876 -5.626634 2.020006 -7.993250 9.795119 -5.321960 -1.297366 -5.313170 -2.468207 -3.737394 4.927568 -9.763065 -42.751835 10.517810 4.618874 0.858706 -9.595363 -8.486039 7.005846 
-0.479119 52.396145 1.420235 -6.972656 10.293177 -99.500420 29.822811 -7.874106 -5.629282 -25.556641 5.830078 -0.575180 51.063168 8.107644 2.471410 -51.357426 10.429686 -43.095703 2.000000 -2.000000 0.000000 -98.505859 21.132813 -32.138672 -54.799252 -1.617984 -2.131923 11.647528 65.993225 5.025149 -2.000000 2.000000 0.000000 35.332027 -4.423828 -85.351563 93.257782 0.490221 -3.263889 30.214691 29.322876 -92.485474 -6.191915 2.000441 -7.980011 9.795120 -5.321959 -1.297366 -5.375459 -2.323374 -3.836008 4.188646 -9.716369 -42.683731 10.690926 4.602425 1.016662 -9.758639 -8.704762 7.259515 
-0.343877 52.380386 1.463663 -6.982422 10.458985 -99.705254 29.822811 -7.874106 -5.629282 -25.722656 5.996094 -0.585937 51.063168 8.107644 2.471410 -50.683598 10.019530 -42.617188 2.000000 -2.000000 0.000000 -98.652344 22.001953 -31.627201 -54.260471 -1.497017 -2.070529 12.079678 66.819572 5.151882 -2.000000 2.000000 0.000000 35.195313 -4.745715 -85.918182 93.257782 0.490221 -3.263889 30.214691 29.322876 -92.485474 -6.580882 2.060314 -7.761196 9.794271 -5.321532 -1.335403 -5.649825 -2.195337 -3.959532 3.698621 -9.803117 -42.465450 11.060276 4.591959 0.898865 -9.587459 -8.379458 6.895317 
-0.238991 52.380386 1.506804 -6.806640 10.644532 -99.851707 29.822811 -7.874106 -5.629282 -25.898438 6.005860 -0.605469 51.063168 8.107644 2.471410 -49.990238 9.609375 -42.158207 2.000000 -2.000000 0.000000 -98.955078 23.300783 -30.777386 -53.730946 -1.355412 -1.990783 11.969706 67.590050 5.196549 -2.000000 2.000000 0.000000 35.146484 -5.136719 -86.884766 93.253281 0.510656 -3.448578 30.286407 29.359821 -92.448311 -6.962446 2.040764 -7.788020 9.794905 -5.321857 -1.306196 -5.851501 -2.264619 -3.762513 3.121715 -9.899611 -42.243626 11.060270 4.591972 0.898867 -9.394835 -8.498017 7.064074 
